<?xml version="1.0" standalone="no"?>
<!DOCTYPE svg PUBLIC "-//W3C//DTD SVG 20010904//EN"
 "http://www.w3.org/TR/2001/REC-SVG-20010904/DTD/svg10.dtd">
<svg version="1.0" xmlns="http://www.w3.org/2000/svg"
 width="200.000000pt" height="150.000000pt" viewBox="0 0 400.000000 300.000000"
 preserveAspectRatio="xMidYMid meet">

<g transform="translate(0.000000,300.000000) scale(0.100000,-0.100000)"
fill="#000000" stroke="none">
<path d="M1873 2925 c-103 -19 -196 -51 -297 -104 -102 -53 -196 -137 -196
-176 0 -14 -8 -29 -19 -34 -58 -32 -69 -197 -51 -776 12 -400 12 -415 -10
-625 -26 -251 -24 -479 5 -590 125 -471 629 -695 1042 -464 36 20 97 66 135
102 224 211 280 465 218 987 -12 105 -12 348 0 455 5 47 9 139 8 205 -1 66 -1
185 1 265 4 234 -26 440 -65 440 -8 0 -14 10 -14 24 0 35 -71 109 -153 160
-118 73 -258 121 -414 141 -52 7 -53 6 -53 -19 0 -14 -4 -26 -10 -26 -5 0 -10
11 -10 25 0 29 -8 30 -117 10z m-480 -590 c-4 -11 -1 -13 11 -9 9 4 16 3 15
-2 -1 -5 3 -22 10 -39 7 -16 14 -34 15 -40 2 -5 7 -21 13 -35 6 -14 26 -61 44
-105 18 -44 42 -93 53 -108 15 -20 21 -44 21 -80 0 -44 -3 -52 -20 -55 -27 -4
-54 17 -60 46 -2 12 -7 27 -11 33 -4 6 -10 25 -14 43 -5 17 -20 74 -34 126
-15 52 -29 118 -32 145 -4 28 -10 54 -15 60 -12 12 -12 48 1 40 5 -3 7 -12 3
-20z m617 -775 c0 -5 -4 -10 -10 -10 -5 0 -10 5 -10 10 0 6 5 10 10 10 6 0 10
-4 10 -10z m0 -90 c0 -5 -4 -10 -10 -10 -5 0 -10 5 -10 10 0 6 5 10 10 10 6 0
10 -4 10 -10z m0 -90 c0 -5 -5 -10 -11 -10 -5 0 -7 5 -4 10 3 6 8 10 11 10 2
0 4 -4 4 -10z m0 -485 c0 -18 -7 -26 -25 -31 -32 -8 -65 -49 -65 -81 0 -37 18
-63 56 -79 43 -18 48 -54 8 -54 -61 0 -124 69 -124 137 0 63 67 133 127 133
18 0 23 -6 23 -25z m130 -145 c0 -56 -1 -60 -24 -60 -18 0 -25 7 -29 30 -6 27
-11 30 -42 30 -30 0 -35 3 -35 24 0 28 13 33 83 35 l47 1 0 -60z"/>
</g>
</svg>
